<svg width="32" height="32" viewBox="0 0 32 32" fill="none" xmlns="http://www.w3.org/2000/svg">
  <path
    d="M3.97064 8.82397L12.2497 1.04742C13.7614 -0.372529 16.0755 -0.345628 17.556 1.1091L26.9897 10.3786C28.2272 11.5945 28.5571 13.5018 27.8042 15.0865L23.9438 23.2116C22.9107 25.3859 20.2724 26.1348 18.312 24.8102L12.3886 20.8078L4.38944 15.1436C2.3104 13.6715 2.10528 10.5761 3.97064 8.82397Z"
    fill="#EE6F7C" />
  <path
    d="M13.7911 27.0345L7.40827 27.2302C5.94781 27.275 4.58568 26.4712 3.87915 25.1476L0.486718 18.7925C-0.492859 16.9574 0.0482381 14.6517 1.73201 13.4861L8.52857 8.78096C9.74532 7.93864 11.3154 7.87243 12.5943 8.60952L20.0091 12.8829C22.0258 14.0451 22.6311 16.7558 21.3118 18.7159L16.8756 25.3071C16.1697 26.3559 15.0255 26.9966 13.7911 27.0345Z"
    fill="#2276FC" fill-opacity="0.8" />
  <path
    d="M15.5743 19.772L18.484 14.5362C19.5203 12.6715 21.7875 11.9756 23.6386 12.9541L29.8735 16.2499C31.6816 17.2058 32.4787 19.4375 31.7058 21.3806L28.4763 29.5001C27.8364 31.1088 26.2725 32.1122 24.5957 31.9899L18.0372 31.5113C15.8186 31.3494 14.1798 29.3032 14.4379 27.017L15.0814 21.3159C15.1428 20.772 15.3105 20.2467 15.5743 19.772Z"
    fill="#F7CF46" fill-opacity="0.8" />
</svg>