<svg width="70" height="40" fill="none" xmlns="http://www.w3.org/2000/svg">
  <path d="M.18 35.75c.46.25.97.38 1.5.37.46 0 .89-.1.89-.55 0-1.04-2.57-.38-2.57-2.44 0-1.36 1.28-1.73 2.37-1.73.47 0 .94.07 1.4.21l-.1 1.17a2.75 2.75 0 0 0-1.2-.26c-.37 0-.98.03-.98.53 0 .9 2.57.3 2.57 2.33 0 1.46-1.18 1.86-2.38 1.86A5.6 5.6 0 0 1 .06 37l.12-1.25M4.49 32.93h.82V32l1.38-.44v1.38h.98v1.02H6.7v1.55c0 .51.12.77.56.77.14 0 .28-.02.43-.06l.04.95c-.29.05-.58.07-.87.08-1.26 0-1.56-.57-1.56-1.57v-1.72h-.8v-1.02" fill="#fff"/>
  <path fill-rule="evenodd" clip-rule="evenodd" d="m10.93 36.89.02.24h1.28a5.41 5.41 0 0 1-.08-.99v-1.56c0-1.29-.89-1.75-1.92-1.75-.56-.01-1.1.1-1.62.3l.03.99c.4-.22.84-.33 1.29-.32.5 0 .9.15.92.73a4.12 4.12 0 0 0-.66-.06c-.74 0-2.09.16-2.09 1.44 0 .91.72 1.32 1.52 1.32.57 0 .96-.23 1.28-.76h.02l.01.42Zm-.08-1.62c0 .5-.34 1-.87 1-.32 0-.58-.17-.57-.47 0-.4.37-.55.85-.55.2 0 .4 0 .59.02Z" fill="#fff"/>
  <path d="M12.7 32.93h.81V32l1.4-.44v1.38h.97v1.02h-.98v1.55c0 .51.11.77.55.77.15 0 .3-.02.43-.06l.05.95a6 6 0 0 1-.87.08c-1.26 0-1.56-.57-1.56-1.57v-1.72h-.8v-1.02" fill="#fff"/>
  <path fill-rule="evenodd" clip-rule="evenodd" d="M17.73 35.46c.08.58.5.8 1.2.8.42 0 .85-.1 1.23-.32v1.03c-.48.19-.98.28-1.5.27-1.33 0-2.35-.82-2.35-2.2 0-1.4.91-2.2 2.17-2.2 1.5 0 2.05 1.1 2.05 2.36v.26h-2.8Zm.77-1.7c.56 0 .77.4.77.88h-1.54c.02-.49.27-.88.77-.88Z" fill="#fff"/>
  <path d="M21.25 32.93h1.28v.78h.02c.28-.6.84-.87 1.47-.87 1.11 0 1.55.8 1.55 1.68v2.61h-1.4v-2.02c0-.8-.26-1.06-.64-1.06-.58 0-.87.41-.87 1.32v1.76h-1.4v-4.2M26.37 35.98c.41.18.86.28 1.31.29.29 0 .57-.05.57-.34 0-.71-2-.21-2-1.73 0-.96.93-1.37 1.73-1.37.49 0 .97.07 1.43.25l-.11 1.01a2.2 2.2 0 0 0-1.08-.29c-.31 0-.65.06-.65.3 0 .65 2.09.13 2.09 1.73 0 1.12-.98 1.4-1.9 1.4-.5.02-1-.05-1.47-.2l.08-1.05M32.36 32.93h1.5l.84 3h.01l.85-3h1.4l-1.51 4.21h-1.6l-1.5-4.2" fill="#fff"/>
  <path fill-rule="evenodd" clip-rule="evenodd" d="M38.69 35.46c.07.58.5.8 1.19.8.43 0 .85-.1 1.23-.32v1.03c-.48.19-.98.28-1.48.27-1.35 0-2.36-.82-2.36-2.2 0-1.4.9-2.2 2.17-2.2 1.5 0 2.04 1.1 2.04 2.36v.26h-2.8Zm.77-1.7c.55 0 .77.4.77.88h-1.55c.03-.49.27-.88.78-.88ZM44.07 38.94c1.64 0 2.44-.56 2.44-2.29v-3.71h-1.27v.76h-.02c-.27-.53-.8-.85-1.37-.86-1.26 0-1.83.95-1.83 2.2 0 1.23.69 2.1 1.8 2.1.55.02 1.06-.25 1.37-.71v.22c0 .83-.42 1.23-1.23 1.23-.47 0-.95-.11-1.36-.35l-.08 1.15c.5.17 1.03.26 1.55.26Zm1.08-3.99c0 .65-.4 1.08-.9 1.08h.02c-.43 0-.8-.38-.8-1.02 0-.57.27-1.05.79-1.05.63 0 .9.52.9 1Z" fill="#fff"/>
  <path d="M47.06 32.93h1.5l.84 3h.01l.85-3h1.4l-1.5 4.21h-1.6l-1.5-4.2" fill="#fff"/>
  <path fill-rule="evenodd" clip-rule="evenodd" d="M53.38 35.46c.08.58.51.8 1.2.8.43 0 .85-.1 1.23-.32v1.03c-.47.19-.97.28-1.48.27-1.34 0-2.36-.82-2.36-2.2 0-1.4.91-2.2 2.17-2.2 1.5 0 2.05 1.1 2.05 2.36v.26h-2.8Zm.76-1.7c.57 0 .78.4.78.88h-1.56c.04-.49.27-.88.78-.88Z" fill="#fff"/>
  <path d="M56.84 35.98c.42.18.87.28 1.32.29.28 0 .56-.05.56-.34 0-.7-1.99-.21-1.99-1.73 0-.96.92-1.37 1.73-1.37.48 0 .97.07 1.42.25l-.11 1c-.33-.18-.7-.28-1.08-.28-.3 0-.65.06-.65.3 0 .65 2.09.13 2.09 1.73 0 1.12-.97 1.4-1.9 1.4-.49.02-.99-.05-1.46-.2l.08-1.05" fill="#fff"/>
  <path fill-rule="evenodd" clip-rule="evenodd" d="M62.03 35.46c.08.58.5.8 1.18.8.43 0 .86-.1 1.24-.32v1.03c-.48.19-.98.28-1.49.27-1.33 0-2.35-.82-2.35-2.2 0-1.4.91-2.2 2.17-2.2 1.5 0 2.05 1.1 2.05 2.36v.26h-2.8Zm.77-1.7c.55 0 .77.4.77.88h-1.55c.03-.49.27-.88.78-.88Z" fill="#fff"/>
  <path d="M65.56 32.93h1.28v.78h.01c.28-.6.84-.87 1.48-.87 1.1 0 1.54.8 1.54 1.68v2.61h-1.4v-2.02c0-.8-.26-1.06-.64-1.06-.58 0-.87.41-.87 1.32v1.76h-1.4v-4.2" fill="#fff"/>
  <path fill-rule="evenodd" clip-rule="evenodd" d="M51.43 13.42a.48.48 0 0 0-.46-.28H46.7V.94H23.2v12.2h-4.28a.47.47 0 0 0-.5.47c0 .14.06.27.15.37l2.85 3.34c.16.19.39.3.63.3h1.15v7.71h23.5v-7.7h1.13c.24-.01.47-.12.62-.31l2.86-3.34c.09-.1.14-.23.14-.37a.47.47 0 0 0-.03-.18ZM41.26 7.17l-.96 4.12H29.63l-.97-4.13c0-.36.1-.71.31-1 .82-1.11 2.32-.73 3.2-.47.42-.28.92-.38 1.4-.28l.29.05c-.26-.62 0-1.34.6-1.62v-.29h-.55V2.51h.55v-.55h1.01v.55h.55v1.04h-.55v.29c.59.28.85 1 .6 1.62l.28-.05c.48-.1.98 0 1.4.28.89-.26 2.38-.64 3.2.47.2.3.31.64.31 1Zm-9.04-1.1c-.9-.27-2.28-.64-2.96.27-.15.23-.24.5-.26.79l.89 3.8h10.14l.89-3.8c-.02-.28-.1-.55-.26-.79-.68-.91-2.06-.53-2.96-.27-.58-.5-1.42-.32-2.07-.16a.15.15 0 0 1-.18-.07.15.15 0 0 1 .04-.16c.26-.2.39-.55.33-.88a.89.89 0 0 0-.62-.7v-.83h.54V2.8h-.54v-.54h-.47v.54h-.54v.48h.54v.84a.92.92 0 0 0-.28 1.6c.04.03.05.08.04.13-.03.07-.11.1-.17.07-.65-.18-1.52-.35-2.1.16Zm3.16 1a.4.4 0 0 1-.08.39l-.04.06c-.06.08-.12.17-.1.25.02.04.06.07.1.08.08.02.15-.04.23-.1v-.01a.6.6 0 0 1 .15-.1.2.2 0 0 1 .23.08c.08.18.1.38.03.56-.09.18-.23.11-.4.02a.51.51 0 0 0-.22-.1c-.11 0-.15.2-.15.29 0 .37.22.7.55.84.21.1.45.14.69.14.23 0 .47-.05.69-.14a.93.93 0 0 0 .54-.84c0-.1-.03-.3-.15-.29a.51.51 0 0 0-.22.1c-.17.1-.31.16-.4-.02a.76.76 0 0 1 .03-.56.2.2 0 0 1 .23-.07c.05.02.1.05.14.09h.01c.08.07.15.12.23.11.04 0 .08-.04.1-.08.02-.08-.04-.17-.1-.25l-.04-.06a.4.4 0 0 1-.08-.4.28.28 0 0 1 .23-.1h.05a.75.75 0 0 0-.64-.71 2.6 2.6 0 0 0-1.25 0 .75.75 0 0 0-.64.7h.05c.09 0 .17.04.23.12Zm.99-.6c-.25 0-.5.05-.73.14a.34.34 0 0 0-.17.15c.07.03.13.08.17.14.05.07.08.15.07.23 0 .07-.01.15-.04.22a.45.45 0 0 1 .34.04c.1.1.18.22.2.36.06.3.04.74-.25.9a.53.53 0 0 1-.51-.07.7.7 0 0 0 .23.37c.42.26.95.26 1.38 0a.7.7 0 0 0 .23-.36.53.53 0 0 1-.52.07c-.29-.17-.3-.6-.25-.9.02-.15.1-.27.2-.36.1-.06.23-.08.35-.05a.64.64 0 0 1-.05-.22c0-.08.02-.16.07-.23.04-.06.1-.1.17-.13a.34.34 0 0 0-.16-.16 1.95 1.95 0 0 0-.73-.13Zm4.33 6.11v-.03a.74.74 0 0 0-.66-.44H29.89a.76.76 0 0 0-.66.42v.03l-.02.02c-.08.3-.03.61.13.86l4.77 8.95c.14.24.36.64.84.64h.01c.49 0 .71-.4.85-.64l4.77-8.96c.16-.24.2-.56.12-.85Zm-5.08 9.43 4.64-8.75a.67.67 0 0 0 .1-.56.38.38 0 0 0-.33-.21H29.89a.4.4 0 0 0-.33.21c-.05.2-.01.4.1.56L34.32 22l.04.08c.15.24.34.57.6.57.26 0 .45-.31.6-.55l.06-.1Zm1.94-7.47v-.02a.53.53 0 0 0-.47-.32h-4.26a.54.54 0 0 0-.45.29l-.02.03-.02.05a.67.67 0 0 0 .09.54l1.99 3.73c.08.23.3.39.54.39.24 0 .46-.15.54-.38l1.99-3.73a.66.66 0 0 0 .08-.56v-.02Zm-2.33 4.03 1.95-3.67a.27.27 0 0 0 .04-.23.15.15 0 0 0-.14-.1h-4.26a.18.18 0 0 0-.13.1c-.02.08 0 .16.04.23l1.96 3.67.02.04c.05.1.12.24.25.24.11 0 .18-.12.23-.22l.04-.06Zm-13.52-1.5c.09.1.22.17.35.17h2.65c.9 0 1.1.57.98.9l-.05.11c-.25.6-.59 1.41.76 1.41h3.63l.57.9v.1c0 .35 0 1.12.86 1.15.77.04 1.06-.54.6-1.23l-1.2-2.2c-.1-.2-.2-.26-.44-.26h-2.7c-.57 0-.39-.52-.26-.75l.4-.7.66-1.2c.18-.32.13-.46.04-.65-.08-.19-.41-.78-.55-1.02-.13-.23-.16-.27-.33-.28h-8.75c-.14 0-.16.1-.07.2l.7.82h6.84c.09.01.16.1.16.19s-.07.17-.16.18h-6.53l.78.92h5.1c.21 0 .2.36 0 .36h-4.8l.76.88Zm24.63 7.88H23.6v-7.33h1.13c.43 0 .56.13.6.22.04.08.03.18-.01.27-.15.3-.24.62-.26.96 0 .17.04.35.14.5.2.32.6.48 1.22.48h3.43l.4.62v.02c0 .96.41 1.47 1.21 1.5.5.03.9-.17 1.1-.52.18-.36.12-.85-.18-1.3L31.2 18.2c-.2-.38-.45-.46-.77-.46h-2.72a.7.7 0 0 1 .07-.18l.7-1.25.36-.65c.1-.17.16-.36.17-.56 0-.16-.05-.32-.12-.45l-.56-1.04v-.01c-.15-.27-.3-.45-.6-.46H23.6V1.32h22.76v11.82h-4.17c-.28.02-.44.2-.59.46v.01l-.56 1.04c-.07.14-.11.3-.12.45 0 .2.07.4.17.57l.37.65.7 1.25a.7.7 0 0 1 .06.17H39.5c-.33 0-.59.08-.77.47l-1.17 2.15c-.3.46-.37.93-.17 1.3.2.37.58.55 1.09.53.8-.03 1.2-.54 1.2-1.5v-.02l.4-.63h3.44c.62 0 1.01-.16 1.22-.48.09-.15.14-.32.13-.5a2.63 2.63 0 0 0-.25-.96.33.33 0 0 1-.02-.27c.04-.08.18-.2.6-.2h1.16v7.32Zm4-10.4.7-.82c.1-.11.07-.2-.07-.2h-8.75c-.18 0-.2.05-.33.28-.13.23-.46.82-.55 1.01-.09.2-.14.33.04.66l.31.55.75 1.35c.13.23.3.75-.26.75h-2.7c-.24 0-.33.04-.44.26l-1.2 2.19c-.45.69-.16 1.27.6 1.24.87-.04.86-.8.86-1.15v-.11l.58-.9h3.63c1.34 0 1-.8.76-1.4l-.06-.13c-.13-.32.08-.88.98-.88h2.65c.13 0 .26-.07.35-.18l.75-.88h-4.8c-.18 0-.2-.36.01-.36h5.1l.79-.92H43.5a.18.18 0 0 1-.16-.18c0-.1.07-.18.16-.18h6.83ZM32.56 7.07a.4.4 0 0 1-.08.39l-.04.06c-.06.08-.12.17-.1.25.02.04.06.07.1.08.08.02.15-.04.23-.1v-.01a.62.62 0 0 1 .15-.1.2.2 0 0 1 .23.08c.08.18.1.38.03.56-.09.18-.23.11-.4.02a.51.51 0 0 0-.22-.1c-.11 0-.15.2-.15.29 0 .37.22.7.55.84.21.1.45.14.69.14.23 0 .47-.05.69-.14a.93.93 0 0 0 .54-.84c0-.1-.03-.3-.15-.29a.51.51 0 0 0-.22.1c-.17.1-.31.16-.4-.02a.76.76 0 0 1 .03-.56.2.2 0 0 1 .23-.07c.05.02.1.05.14.09l.02.01c.07.06.14.12.22.1.04 0 .08-.04.1-.08.02-.08-.04-.17-.1-.25l-.04-.06a.4.4 0 0 1-.08-.4.28.28 0 0 1 .23-.1h.05a.75.75 0 0 0-.64-.71 2.6 2.6 0 0 0-1.25 0 .75.75 0 0 0-.64.7h.05c.09 0 .17.04.23.12Zm.99-.6c-.25 0-.5.05-.73.14a.34.34 0 0 0-.17.15c.06.03.12.08.17.14.04.06.07.14.07.23 0 .07-.02.15-.05.21a.45.45 0 0 1 .34.05c.11.09.19.22.2.36.06.3.04.74-.25.9a.53.53 0 0 1-.51-.07.7.7 0 0 0 .23.37c.43.26.95.26 1.38 0a.7.7 0 0 0 .24-.36.53.53 0 0 1-.52.07c-.29-.17-.3-.6-.25-.9.02-.15.1-.27.2-.36.1-.06.23-.08.34-.05a.63.63 0 0 1-.04-.22c0-.08.02-.16.07-.23.04-.05.1-.1.17-.13a.34.34 0 0 0-.16-.16 1.95 1.95 0 0 0-.73-.13Zm-1.83 2.6c.18-.2.26-.49.2-.76-.03-.17-.24-.1-.36-.02a.33.33 0 0 1-.26.08c-.06-.02-.1-.1-.12-.14a.74.74 0 0 1 .05-.57c.05-.04.1-.06.16-.05a.4.4 0 0 1 .21.12c.1.07.23.16.31.05.08-.1 0-.2-.07-.3l-.01-.02a.47.47 0 0 1-.12-.28c0-.14.1-.26.24-.26h.03V6.9c0-.15.03-.3.07-.44a4.17 4.17 0 0 0-1.64-.2c-.58.06-.94.3-1.08.67.1.01.18.03.27.07.11.04.18.15.18.27a.71.71 0 0 1-.1.23c0 .02-.02.03-.03.05-.05.08-.12.19-.07.26.08.14.2.03.3-.05l.17-.1c.08-.02.16 0 .21.06.1.2.11.44.01.64-.08.09-.16.05-.25 0l-.06-.02a1.2 1.2 0 0 0-.25-.1c-.04 0-.13 0-.14.16.02.42.18.76.56.93.48.22 1.2.2 1.6-.25Zm-1.84-.46Zm.48.47a.82.82 0 0 1-.48-.47c.13.08.28.12.43.1.17-.1.3-.26.32-.46.05-.37-.04-.7-.23-.83a.48.48 0 0 0-.33-.07.69.69 0 0 0 .03-.2c0-.03 0-.07-.02-.11a.44.44 0 0 0-.27-.28c.5-.32 1.22-.21 1.8-.12h.08v.09a.42.42 0 0 0-.28.34v.08c0 .07.01.13.04.2a.36.36 0 0 0-.38.07 1 1 0 0 0-.17.86c.03.15.12.28.25.36a.5.5 0 0 0 .5-.06c-.03.25-.3.41-.4.46-.28.12-.6.14-.9.04Zm7.57-2.16h.03c.14 0 .24.12.25.26 0 .1-.05.2-.12.28l-.01.02c-.07.1-.15.21-.08.3.08.1.22.03.31-.05a.4.4 0 0 1 .21-.12c.06 0 .12.01.16.05.1.18.11.38.05.58 0 .03-.05.12-.12.13a.33.33 0 0 1-.26-.08c-.12-.07-.32-.15-.36.02-.05.27.02.56.2.77.4.43 1.11.46 1.6.23.37-.17.54-.5.55-.93 0-.14-.1-.16-.14-.15-.08.02-.16.05-.24.1l-.06.02c-.1.05-.17.08-.26 0a.7.7 0 0 1 .01-.64.19.19 0 0 1 .21-.06c.06.02.12.06.17.1.1.08.22.18.3.04.05-.07-.01-.17-.07-.25l-.02-.05a.72.72 0 0 1-.1-.24c0-.12.06-.23.17-.27.1-.03.18-.05.28-.06-.14-.38-.5-.61-1.08-.68a4.16 4.16 0 0 0-1.65.2c.05.15.07.3.08.45v.03Zm.36-.28h-.06v.09c.16.05.27.18.29.34v.08c0 .07-.01.13-.04.2a.36.36 0 0 1 .37.07 1 1 0 0 1 .18.86.58.58 0 0 1-.25.36.51.51 0 0 1-.5-.06c.03.25.3.41.38.46.29.12.6.14.9.04a.83.83 0 0 0 .48-.48.58.58 0 0 1-.44.1.59.59 0 0 1-.32-.46c-.05-.37.04-.7.23-.83.1-.07.22-.09.34-.07a.68.68 0 0 1-.02-.31.44.44 0 0 1 .27-.27c-.5-.32-1.21-.21-1.8-.12h-.01Z" fill="#fff"/>
</svg>