<svg width="96" height="50" viewBox="0 0 96 50" fill="none" xmlns="http://www.w3.org/2000/svg">
<path fill-rule="evenodd" clip-rule="evenodd" d="M54.5483 13.1114L55.7542 8.11977C55.7344 7.74728 55.6107 7.38777 55.3971 7.08196C54.4685 5.88448 52.5882 6.37608 51.3676 6.72271C50.584 6.06095 49.4307 6.28574 48.5483 6.51263C48.455 6.54807 48.3496 6.51295 48.2962 6.4286C48.2689 6.35361 48.2916 6.26955 48.3529 6.21851C48.7114 5.94756 48.885 5.4966 48.8008 5.0552C48.7165 4.6138 48.389 4.25851 47.9559 4.13868V3.04834H48.7038V2.41809H47.9559V1.70801H47.3256V2.4265H46.5798V3.05675H47.3256V4.14918C46.8905 4.27163 46.5635 4.63178 46.4834 5.07667C46.4034 5.52156 46.5844 5.9731 46.9496 6.23952C46.9961 6.28982 47.0115 6.36157 46.9895 6.4265C46.947 6.51259 46.8451 6.55113 46.7563 6.51473C45.8823 6.27944 44.6912 6.06515 43.9076 6.72481C42.687 6.38028 40.8067 5.88448 39.8781 7.08406C39.6656 7.39025 39.5426 7.74965 39.5231 8.12187L40.729 13.1177L54.5483 13.1114ZM52.1008 7.48112L52.1849 7.46851L52.2022 7.46596C53.0015 7.34877 53.9692 7.20687 54.6534 7.62818C54.4796 7.68155 54.3406 7.8128 54.2773 7.98322C54.2643 8.03254 54.2586 8.08351 54.2605 8.13448C54.2608 8.22144 54.2742 8.30786 54.3004 8.39078C54.1389 8.36415 53.9732 8.39699 53.834 8.48322C53.5798 8.66179 53.4496 9.09036 53.5189 9.57355C53.5564 9.83291 53.7223 10.0558 53.9601 10.166C54.1657 10.2011 54.377 10.156 54.5504 10.0399C54.4351 10.3316 54.2014 10.5606 53.9076 10.6702C53.5046 10.799 53.069 10.7804 52.6786 10.6177C52.5588 10.5567 52.1954 10.3404 52.1533 10.0147C52.3512 10.1566 52.6076 10.1882 52.834 10.0988C53.0076 9.99332 53.1323 9.82333 53.1807 9.62607C53.2852 9.23268 53.1962 8.81303 52.9412 8.49582C52.8013 8.36991 52.6035 8.33115 52.4265 8.39498C52.4653 8.31521 52.4847 8.22739 52.4832 8.13868C52.4864 8.10444 52.4864 8.06998 52.4832 8.03574C52.4531 7.82466 52.3043 7.6497 52.1008 7.58616V7.48112ZM49.3403 8.9349C49.4181 9.32565 49.3928 9.90759 48.9979 10.1177C48.7623 10.2047 48.4987 10.1676 48.2962 10.0189C48.3466 10.2108 48.4579 10.3811 48.6134 10.5042C49.1934 10.8411 49.9095 10.8411 50.4895 10.5042C50.643 10.3823 50.7534 10.2144 50.8046 10.0252C50.601 10.1718 50.3375 10.2065 50.1029 10.1177C49.708 9.90128 49.6912 9.32565 49.7605 8.9349C49.7882 8.75011 49.886 8.58309 50.0336 8.46851C50.1757 8.38752 50.3437 8.36492 50.5021 8.40549C50.4639 8.31487 50.4425 8.21805 50.4391 8.11977C50.4361 8.01154 50.4702 7.90554 50.5357 7.81935C50.5953 7.74097 50.6742 7.67943 50.7647 7.64078C50.7172 7.54697 50.6384 7.47267 50.542 7.4307C50.2248 7.31348 49.8886 7.25579 49.5504 7.26053C49.2125 7.25881 48.8768 7.31641 48.5588 7.4307C48.4624 7.47267 48.3836 7.54697 48.3361 7.64078C48.4266 7.67959 48.5054 7.7411 48.5651 7.81935C48.6306 7.90554 48.6647 8.01154 48.6618 8.11977C48.6584 8.21806 48.637 8.3149 48.5987 8.40549C48.7572 8.36492 48.9251 8.38752 49.0672 8.46851C49.2145 8.58338 49.3122 8.75026 49.3403 8.9349ZM45.5 8.9328C45.4721 8.74809 45.3743 8.58114 45.2269 8.46641C45.0848 8.38542 44.9168 8.36282 44.7584 8.40339C44.7968 8.31284 44.8182 8.21598 44.8214 8.11767C44.8242 8.00947 44.7902 7.90352 44.7248 7.81725C44.6651 7.739 44.5862 7.67749 44.4958 7.63868C44.5433 7.54486 44.6221 7.47057 44.7185 7.4286C45.0365 7.31422 45.3721 7.25662 45.7101 7.25843C46.0483 7.25355 46.3845 7.31124 46.7017 7.4286C46.7981 7.47057 46.8769 7.54486 46.9244 7.63868C46.834 7.67766 46.7552 7.73914 46.6954 7.81725C46.6298 7.90344 46.5957 8.00944 46.5987 8.11767C46.602 8.21598 46.6233 8.31284 46.6618 8.40339C46.5033 8.36282 46.3353 8.38542 46.1933 8.46641C46.0458 8.58114 45.9481 8.74809 45.9202 8.9328C45.8508 9.32355 45.8676 9.89918 46.2626 10.1177C46.4972 10.2065 46.7607 10.1718 46.9643 10.0252C46.9104 10.2159 46.7961 10.384 46.6386 10.5042C46.0588 10.8415 45.3425 10.8415 44.7626 10.5042C44.607 10.3812 44.4956 10.2108 44.4454 10.0189C44.649 10.1655 44.9125 10.2002 45.1471 10.1114C45.5525 9.89918 45.5714 9.32566 45.5 8.9328ZM40.9664 8.40339C41.126 8.37654 41.29 8.40785 41.4286 8.49162C41.6828 8.67019 41.8067 9.09876 41.7521 9.57355C41.7146 9.83291 41.5487 10.0558 41.3109 10.166C41.1053 10.2013 40.8939 10.1562 40.7206 10.0399C40.8357 10.3317 41.0694 10.5609 41.3634 10.6702C41.7664 10.799 42.202 10.7804 42.5924 10.6177C42.7143 10.5567 43.0777 10.3404 43.1176 10.0147C42.9198 10.1566 42.6634 10.1882 42.437 10.0988C42.2674 9.99268 42.1461 9.82457 42.0987 9.63028C41.9933 9.23722 42.0815 8.81745 42.3361 8.50003C42.476 8.37411 42.6738 8.33536 42.8508 8.39919C42.8121 8.31939 42.7926 8.23159 42.7941 8.14288C42.7909 8.10865 42.7909 8.07418 42.7941 8.03994C42.8238 7.8294 42.9717 7.65457 43.1744 7.59036V7.48532L43.0882 7.47271L43.0881 7.4727C42.2835 7.35506 41.3067 7.21223 40.6197 7.63238C40.7922 7.68974 40.928 7.82408 40.9874 7.99582C41.001 8.04505 41.0074 8.09601 41.0063 8.14708C41.0059 8.23403 40.9924 8.32043 40.9664 8.40339ZM54.9874 15.4244C54.9011 15.2573 54.732 15.1491 54.5441 15.1408H40.7248C40.5369 15.1509 40.3681 15.2585 40.2794 15.4244C40.2101 15.6748 40.2605 15.9431 40.416 16.1513L46.7458 27.6303C46.7771 27.6773 46.8097 27.7293 46.8439 27.7838C47.0391 28.095 47.2852 28.4874 47.6302 28.4874C47.9863 28.4874 48.2435 28.0727 48.4403 27.7554C48.4677 27.7114 48.4938 27.6692 48.5189 27.6303L54.8508 16.1555C55.0042 15.9464 55.0544 15.6791 54.9874 15.4286V15.4244ZM48.3655 23.4685L51.0651 18.5757V18.5883C51.2131 18.3723 51.2519 18.0996 51.1702 17.8509V17.8278V17.8067C51.0543 17.5529 50.8021 17.3891 50.5231 17.3866H44.7248C44.4677 17.3947 44.2332 17.5354 44.105 17.7584L44.0756 17.8089L44.0588 17.8656C43.9901 18.1081 44.0316 18.3686 44.1723 18.5778L46.8823 23.4538C46.9969 23.7623 47.2899 23.9681 47.6189 23.9713C47.9479 23.9746 48.2449 23.7746 48.3655 23.4685ZM43.6807 25.7458C44.3109 26.6492 43.9139 27.4118 42.8592 27.3677C41.6849 27.3232 41.6946 26.3136 41.6989 25.8622V25.8621C41.6995 25.8016 41.7 25.7511 41.6975 25.7143C41.6975 25.7143 41.3025 25.1177 40.9118 24.5483H35.9664C34.1321 24.5483 34.5908 23.4891 34.933 22.6988C34.9569 22.6437 34.9802 22.5899 35.0021 22.5378C35.1786 22.1177 34.8928 21.3698 33.6681 21.3698H30.0609C29.8754 21.3636 29.7012 21.2788 29.5819 21.1366L28.5567 19.9811H35.0966C35.3466 19.9811 35.376 19.5084 35.084 19.5084H28.1386L27.0714 18.3046H35.9664C36.0894 18.2931 36.1835 18.1898 36.1835 18.0662C36.1835 17.9426 36.0894 17.8393 35.9664 17.8278H26.6492L25.6954 16.7521C25.5714 16.6135 25.6071 16.4874 25.7983 16.4874H37.7206C37.9538 16.5021 37.9895 16.5546 38.1702 16.8572C38.3508 17.1597 38.8004 17.9454 38.916 18.1891C39.0315 18.4328 39.1113 18.6198 38.8592 19.0462C38.7109 19.2971 38.3009 20.0097 37.952 20.6159C37.7079 21.0402 37.4937 21.4124 37.4202 21.5378C37.2416 21.8425 37 22.5231 37.7794 22.5231H41.4454C41.7878 22.5231 41.9181 22.5883 42.0588 22.8614C42.1996 23.1345 43.6807 25.7584 43.6807 25.7584V25.7458ZM68.5987 17.8446L69.5525 16.7689C69.6744 16.6303 69.6408 16.5042 69.4496 16.5105H57.5273C57.2878 16.5273 57.2563 16.5757 57.0777 16.8803C56.8992 17.1849 56.4559 17.9601 56.3319 18.2122C56.208 18.4643 56.1408 18.6429 56.3887 19.0694C56.4858 19.2365 56.7005 19.6093 56.9364 20.0189C57.3022 20.6543 57.7192 21.3783 57.8277 21.5609C58.0063 21.8614 58.2395 22.5462 57.4685 22.5462H53.8025C53.4601 22.5462 53.3403 22.6072 53.1891 22.8845C53.0378 23.1618 51.5672 25.7626 51.5672 25.7626C50.9412 26.666 51.3382 27.4286 52.3887 27.3845C53.5618 27.3381 53.5529 26.3289 53.5489 25.8782C53.5484 25.818 53.5479 25.7678 53.5504 25.7311C53.5504 25.7311 53.9454 25.1324 54.3361 24.5652H59.2794C61.1093 24.5652 60.6541 23.5087 60.3137 22.7188C60.2895 22.6626 60.2659 22.6077 60.2437 22.5546C60.0651 22.1261 60.3529 21.3866 61.5777 21.3866H65.1828C65.3683 21.3804 65.5425 21.2956 65.6618 21.1534L66.687 19.9979H60.1471C59.8971 19.9979 59.8676 19.5252 60.1597 19.5252H67.1092L68.1765 18.3215H59.2794C59.1564 18.3099 59.0623 18.2066 59.0623 18.083C59.0623 17.9594 59.1564 17.8561 59.2794 17.8446H68.5987Z" fill="#FFD520"/>
<path fill-rule="evenodd" clip-rule="evenodd" d="M70.0735 16.3718C69.9583 16.1321 69.7087 15.9865 69.4433 16.0042H63.6428V0H31.6365V16.0063H25.7983C25.5329 15.9886 25.2833 16.1342 25.1681 16.374C25.1335 16.4506 25.1156 16.5336 25.1155 16.6176C25.1206 16.7971 25.1916 16.9684 25.3151 17.0987L29.2017 21.4811C29.4149 21.7303 29.7246 21.8764 30.0525 21.8824H31.626V31.9979H63.6428V21.8824H65.1849C65.5127 21.8761 65.8223 21.7301 66.0357 21.4811L69.9223 17.1008C70.0458 16.9705 70.1168 16.7992 70.1218 16.6197C70.1222 16.535 70.1043 16.4512 70.0693 16.374L70.0735 16.3718ZM56.2185 8.16176L54.9055 13.5735L40.3697 13.5714L39.0546 8.15546C39.0527 7.68248 39.1997 7.22088 39.4748 6.83613C40.5966 5.38655 42.6323 5.88866 43.8424 6.22689C44.4071 5.86482 45.0888 5.73252 45.7479 5.85714L46.1344 5.92227C45.7863 5.11148 46.1454 4.17075 46.9454 3.79832V3.42437H46.1975V2.05462H46.9496V1.32983H48.3361V2.05462H49.0777V3.42437H48.3361V3.80042C49.1333 4.17436 49.4902 5.11317 49.1429 5.92227L49.5252 5.86344C50.1843 5.73883 50.866 5.87112 51.4307 6.23319C52.6471 5.89286 54.6765 5.38866 55.7983 6.84244C56.0736 7.22711 56.2206 7.68876 56.2185 8.16176ZM43.9075 6.72269C42.6786 6.37395 40.8004 5.88235 39.8718 7.07773C39.6585 7.3837 39.5349 7.74312 39.5147 8.11555L40.7206 13.1113H54.5483L55.7542 8.11975C55.7344 7.74725 55.6106 7.38775 55.397 7.08193C54.4685 5.88235 52.5882 6.37605 51.3676 6.72269C50.584 6.06723 49.4307 6.30252 48.5483 6.51261C48.455 6.54805 48.3496 6.51292 48.2962 6.42857C48.2689 6.35359 48.2916 6.26953 48.3529 6.21849C48.7114 5.94754 48.885 5.49657 48.8008 5.05517C48.7165 4.61378 48.389 4.25848 47.9559 4.13866V3.05672H48.7038V2.42647H47.9559V1.70798H47.3256V2.42437H46.5798V3.05462H47.3256V4.14706C46.8905 4.26951 46.5635 4.62965 46.4834 5.07454C46.4034 5.51943 46.5844 5.97097 46.9496 6.2374C46.9961 6.28769 47.0115 6.35944 46.9895 6.42437C46.947 6.51046 46.8451 6.54901 46.7563 6.51261C45.8823 6.27311 44.6912 6.06093 43.9075 6.72269ZM48.2059 8.03361C48.2661 8.21227 48.2242 8.40952 48.0966 8.54832C48.0811 8.57208 48.0631 8.59688 48.0446 8.62241L48.0446 8.62244C47.9683 8.72781 47.883 8.84556 47.9202 8.95378C47.9405 9.01081 47.9905 9.05201 48.0504 9.06092C48.1479 9.08082 48.2492 9.00458 48.3525 8.92684L48.3697 8.91387C48.427 8.86496 48.4906 8.82398 48.5588 8.79202C48.6763 8.7484 48.8083 8.79096 48.8781 8.89496C48.9889 9.12325 49.0047 9.3861 48.9223 9.62605C48.7962 9.86134 48.6071 9.76891 48.3781 9.64706C48.2881 9.58105 48.1837 9.53715 48.0735 9.51891C47.9181 9.51891 47.8634 9.76891 47.8634 9.89916C47.8718 10.3826 48.1653 10.8154 48.6113 11.0021C48.9085 11.1264 49.2284 11.1872 49.5504 11.1807C49.8723 11.1857 50.1919 11.1249 50.4895 11.0021C50.9356 10.8154 51.229 10.3826 51.2374 9.89916C51.2374 9.76891 51.1849 9.51471 51.0273 9.51891C50.9171 9.53707 50.8127 9.58098 50.7227 9.64706C50.4937 9.76891 50.3025 9.85714 50.1786 9.62605C50.0961 9.3861 50.1119 9.12325 50.2227 8.89496C50.293 8.7916 50.4246 8.7492 50.542 8.79202C50.6102 8.82398 50.6738 8.86496 50.7311 8.91387L50.751 8.92918C50.8511 9.0061 50.948 9.08062 51.0504 9.06092C51.1103 9.05201 51.1604 9.01081 51.1807 8.95378C51.2174 8.84687 51.1346 8.73199 51.059 8.62709C51.0395 8.60007 51.0205 8.57371 51.0042 8.54832C50.8766 8.40952 50.8348 8.21227 50.895 8.03361C50.9679 7.93771 51.0812 7.88106 51.2017 7.88025H51.2668C51.2347 7.40635 50.8723 7.02112 50.4013 6.96008C49.8391 6.82606 49.2533 6.82606 48.6912 6.96008C48.2201 7.02112 47.8578 7.40635 47.8256 7.88025H47.8908C48.0135 7.87909 48.1295 7.93594 48.2038 8.03361H48.2059ZM49.5525 7.2605C49.2146 7.25879 48.8789 7.31638 48.5609 7.43067H48.5588C48.4634 7.47105 48.3848 7.543 48.3361 7.63445C48.4266 7.67327 48.5054 7.73478 48.5651 7.81303C48.6306 7.89922 48.6647 8.00522 48.6617 8.11345C48.6584 8.21174 48.637 8.30857 48.5987 8.39916C48.7571 8.35859 48.9251 8.38119 49.0672 8.46219C49.2145 8.57705 49.3122 8.74393 49.3403 8.92857C49.4181 9.31933 49.3928 9.90126 48.9979 10.1113C48.7633 10.2002 48.4998 10.1654 48.2962 10.0189C48.3466 10.2108 48.4579 10.3811 48.6134 10.5042C49.1934 10.8411 49.9095 10.8411 50.4895 10.5042C50.6437 10.3826 50.7549 10.2147 50.8067 10.0252C50.6031 10.1717 50.3396 10.2065 50.105 10.1176C49.7101 9.90126 49.6933 9.32563 49.7626 8.93487C49.7903 8.75009 49.8881 8.58307 50.0357 8.46849C50.1778 8.38749 50.3458 8.36489 50.5042 8.40546C50.466 8.31485 50.4446 8.21803 50.4412 8.11975C50.4382 8.01152 50.4723 7.90552 50.5378 7.81933C50.5973 7.74094 50.6763 7.6794 50.7668 7.64076C50.7193 7.54694 50.6405 7.47264 50.5441 7.43067C50.2268 7.31346 49.8907 7.25577 49.5525 7.2605ZM55.4622 15.271V15.2458L55.4517 15.2206C55.2854 14.876 54.9393 14.6542 54.5567 14.6471H40.7248C40.3485 14.658 40.0076 14.8718 39.834 15.2059L39.8172 15.2374L39.8067 15.271C39.6888 15.6539 39.7531 16.0697 39.9811 16.3992L46.4769 28.1408L46.4779 28.1424C46.6608 28.4557 46.9675 28.9811 47.6176 28.9811H47.6407C48.3005 28.9664 48.6052 28.4444 48.7882 28.1311L48.7899 28.1282L55.2878 16.3866C55.511 16.06 55.5751 15.6501 55.4622 15.271ZM48.5294 27.6345L54.855 16.1534L54.8508 16.1555C55.0035 15.9461 55.0529 15.6787 54.9853 15.4286C54.899 15.2615 54.7299 15.1533 54.542 15.145H40.7248C40.5369 15.1551 40.368 15.2626 40.2794 15.4286C40.2101 15.679 40.2605 15.9473 40.416 16.1555L46.7563 27.6345C46.7766 27.6665 46.7978 27.7008 46.8199 27.7367C47.0159 28.0541 47.2859 28.4916 47.6407 28.4916C47.9862 28.4916 48.2465 28.0801 48.4469 27.7633L48.4469 27.7632C48.4756 27.7179 48.5031 27.6745 48.5294 27.6345ZM51.1828 17.834V17.813C51.0669 17.5592 50.8147 17.3954 50.5357 17.3929H44.7374C44.4803 17.4009 44.2458 17.5417 44.1176 17.7647L44.0882 17.8151L44.0714 17.8718C44.0027 18.1144 44.0442 18.3749 44.1849 18.584L46.8928 23.4727C47.0074 23.7811 47.3004 23.987 47.6294 23.9902C47.9584 23.9935 48.2554 23.7935 48.376 23.4874L51.0756 18.5945C51.2267 18.3834 51.2716 18.1143 51.1975 17.8655L51.1828 17.834ZM48.0042 23.1239L50.6555 18.3088L50.6513 18.3109C50.7168 18.2247 50.7385 18.1129 50.7101 18.0084C50.6769 17.9345 50.6041 17.8863 50.5231 17.8845H44.7248C44.6454 17.8926 44.5749 17.9388 44.5357 18.0084C44.5089 18.1127 44.5296 18.2235 44.5924 18.3109L47.2605 23.1239C47.2709 23.1417 47.2815 23.1609 47.2926 23.181C47.3671 23.3156 47.4621 23.4874 47.6302 23.4874C47.7889 23.4874 47.8796 23.3331 47.9558 23.2034C47.9725 23.1751 47.9884 23.148 48.0042 23.1239ZM29.5819 21.1513C29.7012 21.2935 29.8754 21.3783 30.0609 21.3845L33.6681 21.3782C34.8928 21.3782 35.1786 22.1261 35.0021 22.5462C34.9802 22.5983 34.9569 22.6521 34.933 22.7072L34.933 22.7072C34.5908 23.4975 34.1321 24.5567 35.9664 24.5567H40.9118C41.3025 25.1261 41.6975 25.7227 41.6975 25.7227C41.7 25.7595 41.6995 25.81 41.6989 25.8706C41.6946 26.3219 41.6849 27.3316 42.8592 27.3761C43.9139 27.4202 44.3109 26.6576 43.6807 25.7542C43.6807 25.7542 42.1996 23.1492 42.0588 22.8761C41.9181 22.6029 41.7878 22.5378 41.4454 22.5378H37.7794C37 22.5378 37.2416 21.8571 37.4202 21.5525C37.4937 21.4271 37.7078 21.055 37.9519 20.6308L37.952 20.6307C38.3008 20.0244 38.7109 19.3118 38.8592 19.0609C39.1113 18.6345 39.0315 18.4475 38.916 18.2038C38.8004 17.9601 38.3508 17.1744 38.1702 16.8718C37.9895 16.5693 37.9538 16.5168 37.7206 16.5021H25.7983C25.6071 16.5021 25.5714 16.6282 25.6954 16.7668L26.6492 17.8424H35.9664C36.0894 17.854 36.1835 17.9573 36.1835 18.0809C36.1835 18.2045 36.0894 18.3078 35.9664 18.3193H27.0714L28.1386 19.5231H35.084C35.376 19.5231 35.3466 19.9958 35.0966 19.9958H28.5567L29.5819 21.1513ZM63.1429 31.5H32.1428V21.8823H33.6765C34.2647 21.8823 34.4454 22.0483 34.5 22.1618C34.5478 22.2765 34.5424 22.4065 34.4853 22.5168C34.2858 22.9096 34.1659 23.338 34.1323 23.7773C34.1281 24.0089 34.1933 24.2364 34.3193 24.4307C34.5987 24.8508 35.1407 25.0609 35.979 25.0609H40.6576L41.2122 25.8823V25.9097C41.2122 27.1702 41.7647 27.8361 42.8529 27.8781C43.5378 27.9076 44.0798 27.6534 44.3382 27.1849C44.5966 26.7164 44.5189 26.0756 44.1008 25.4748L42.5126 22.6534C42.2521 22.1471 41.9034 22.0441 41.4622 22.0441H37.7521C37.7734 21.963 37.806 21.8852 37.8487 21.813L38.7941 20.1786L39.292 19.3172C39.4365 19.0975 39.5185 18.8426 39.5294 18.5798C39.522 18.3726 39.4651 18.1702 39.3634 17.9895C39.229 17.7206 38.7689 16.9118 38.6029 16.626V16.6134C38.3928 16.2626 38.1828 16.0294 37.792 16.0105H32.1428V0.497899H63.1513V16.0063H57.479C57.0861 16.0273 56.8781 16.2584 56.6681 16.6092V16.6218C56.5021 16.9076 56.0378 17.7143 55.9076 17.9853C55.8058 18.166 55.7489 18.3684 55.7416 18.5756C55.7524 18.8384 55.8344 19.0933 55.979 19.313L56.4769 20.1744L57.4223 21.8088C57.4652 21.8809 57.4977 21.9587 57.5189 22.0399H53.8025C53.3571 22.0399 53.0063 22.1429 52.7521 22.6492L51.1639 25.4706C50.7437 26.0714 50.6597 26.6954 50.9265 27.1807C51.1933 27.666 51.7269 27.9034 52.4118 27.8739C53.5 27.8319 54.0504 27.1702 54.0504 25.9055V25.8781L54.605 25.0567H59.2836C60.1239 25.0567 60.6639 24.8466 60.9433 24.4265C61.0693 24.2322 61.1344 24.0047 61.1302 23.7731C61.0967 23.3338 60.9768 22.9054 60.7773 22.5126C60.7195 22.4026 60.7133 22.2726 60.7605 22.1576C60.8151 22.0441 60.9958 21.8781 61.584 21.8781H63.1492L63.1429 31.5ZM68.5966 17.8445L69.5504 16.7689H69.5525C69.6744 16.6303 69.6408 16.5042 69.4496 16.5105H57.5273C57.2878 16.5273 57.2563 16.5756 57.0777 16.8803C56.8992 17.1849 56.4559 17.9601 56.3319 18.2122C56.208 18.4643 56.1408 18.6429 56.3887 19.0693C56.4848 19.2347 56.6959 19.6014 56.9288 20.0058L56.9292 20.0064L56.9315 20.0105L56.9321 20.0114L56.9356 20.0176L56.9364 20.0189C57.3023 20.6543 57.7192 21.3783 57.8277 21.5609C58.0063 21.8613 58.2395 22.5462 57.4685 22.5462H53.8025C53.4601 22.5462 53.3403 22.6071 53.1891 22.8845C53.0378 23.1618 51.5672 25.7626 51.5672 25.7626C50.9412 26.666 51.3382 27.4286 52.3887 27.3845C53.5618 27.3381 53.5529 26.3289 53.5489 25.8782C53.5484 25.818 53.5479 25.7677 53.5504 25.7311C53.5504 25.7311 53.9454 25.1324 54.3361 24.5651H59.2794C61.1093 24.5651 60.6541 23.5087 60.3137 22.7187L60.3136 22.7184C60.2894 22.6623 60.2659 22.6076 60.2437 22.5546C60.0651 22.126 60.3529 21.3866 61.5777 21.3866H65.1828C65.3683 21.3804 65.5425 21.2956 65.6618 21.1534L66.687 19.9979H60.1471C59.8971 19.9979 59.8676 19.5252 60.1597 19.5252H67.1092L68.1765 18.3214H59.2794C59.1564 18.3099 59.0623 18.2066 59.0623 18.083C59.0623 17.9594 59.1564 17.8561 59.2794 17.8445H68.5966ZM44.3634 8.03361C44.4236 8.21227 44.3818 8.40952 44.2542 8.54832C44.2386 8.57209 44.2206 8.5969 44.2021 8.62244C44.1258 8.7278 44.0405 8.84556 44.0777 8.95378C44.098 9.01081 44.1481 9.05201 44.208 9.06092C44.3055 9.08083 44.4068 9.00458 44.5101 8.92683L44.5273 8.91387C44.5846 8.86496 44.6482 8.82398 44.7164 8.79202C44.8338 8.7484 44.9659 8.79096 45.0357 8.89496C45.1467 9.12319 45.1625 9.38613 45.0798 9.62605C44.9538 9.86134 44.7647 9.76891 44.5357 9.64706C44.4455 9.58166 44.3411 9.53847 44.2311 9.52101C44.0756 9.52101 44.021 9.77101 44.021 9.90126C44.0288 10.3849 44.3225 10.818 44.7689 11.0042C45.0661 11.1285 45.3859 11.1893 45.708 11.1828C46.0299 11.188 46.3495 11.1272 46.6471 11.0042C47.0935 10.818 47.3871 10.3849 47.395 9.90126C47.395 9.77101 47.3424 9.51681 47.1849 9.52101C47.0748 9.53855 46.9705 9.58173 46.8802 9.64706C46.6513 9.76891 46.4601 9.85714 46.3361 9.62605C46.2539 9.38607 46.2697 9.12331 46.3802 8.89496C46.4501 8.79096 46.5821 8.7484 46.6996 8.79202C46.7679 8.82382 46.8315 8.86481 46.8887 8.91387L46.9086 8.92918C47.0086 9.0061 47.1055 9.08062 47.208 9.06092C47.2679 9.05201 47.3179 9.01081 47.3382 8.95378C47.3744 8.84859 47.2935 8.73569 47.2194 8.63218L47.2194 8.63214C47.1988 8.60335 47.1787 8.57529 47.1618 8.54832C47.0342 8.40952 46.9923 8.21227 47.0525 8.03361C47.1255 7.93771 47.2388 7.88106 47.3592 7.88025H47.4265C47.3945 7.40704 47.0332 7.02204 46.563 6.96008C46.0002 6.82581 45.4137 6.82581 44.8508 6.96008C44.3806 7.02204 44.0193 7.40704 43.9874 7.88025H44.0525C44.1745 7.87976 44.2896 7.93654 44.3634 8.03361ZM45.7101 7.2605C45.3721 7.2587 45.0365 7.3163 44.7185 7.43067C44.6195 7.46847 44.537 7.53986 44.4853 7.63235C44.5757 7.67116 44.6546 7.73268 44.7143 7.81092C44.7797 7.89719 44.8137 8.00314 44.8109 8.11134C44.8077 8.20965 44.7863 8.30652 44.7479 8.39706C44.9063 8.35649 45.0743 8.37909 45.2164 8.46008C45.3638 8.57481 45.4616 8.74176 45.4895 8.92647C45.5672 9.31933 45.542 9.90126 45.1471 10.1113C44.9125 10.2002 44.649 10.1654 44.4454 10.0189C44.4956 10.2108 44.607 10.3812 44.7626 10.5042C45.3425 10.8415 46.0588 10.8415 46.6386 10.5042C46.7958 10.3845 46.91 10.2172 46.9643 10.0273C46.7607 10.1738 46.4972 10.2086 46.2626 10.1197C45.8676 9.90126 45.8508 9.32563 45.9202 8.93487C45.9481 8.75016 46.0458 8.58321 46.1933 8.46849C46.3353 8.38749 46.5033 8.36489 46.6618 8.40546C46.6233 8.31492 46.602 8.21806 46.5987 8.11975C46.5957 8.01152 46.6298 7.90552 46.6954 7.81933C46.7552 7.74121 46.834 7.67973 46.9244 7.64076C46.8769 7.54694 46.7981 7.47264 46.7017 7.43067C46.3845 7.31331 46.0483 7.25562 45.7101 7.2605ZM43.2269 10.6681C43.4701 10.3946 43.5705 10.0226 43.4979 9.66387C43.4454 9.43908 43.1618 9.54202 43.0042 9.63445C42.906 9.71817 42.7773 9.75701 42.6492 9.7416C42.5609 9.72059 42.5 9.60714 42.4853 9.56303C42.4029 9.31315 42.4296 9.04011 42.5588 8.81092C42.6142 8.75657 42.6928 8.73299 42.7689 8.7479C42.8793 8.76751 42.9812 8.82027 43.0609 8.89916C43.187 9 43.3676 9.10924 43.4811 8.97269C43.586 8.84645 43.4754 8.70046 43.385 8.58119L43.3634 8.55252C43.2667 8.44943 43.2094 8.31553 43.2017 8.17437C43.2051 7.99166 43.353 7.84468 43.5357 7.84244H43.5735V7.80462C43.5804 7.60764 43.6143 7.41253 43.6744 7.22479C42.9506 6.99241 42.1886 6.90252 41.4307 6.96008C40.6429 7.03992 40.1576 7.35084 39.9601 7.84454C40.0881 7.85789 40.2142 7.88537 40.3361 7.92647C40.4822 7.98209 40.5779 8.12312 40.5756 8.27941C40.5502 8.39141 40.5039 8.4976 40.4391 8.59244C40.4277 8.61138 40.4144 8.63191 40.4005 8.65348C40.3293 8.76342 40.2407 8.90027 40.3004 8.9916C40.4118 9.17227 40.5882 9.03571 40.7206 8.93277C40.7893 8.87771 40.8657 8.83311 40.9475 8.80042C41.0511 8.76505 41.1658 8.7977 41.2353 8.88235C41.3789 9.1428 41.3844 9.45738 41.25 9.72269C41.1312 9.83292 41.0279 9.785 40.903 9.72712C40.8756 9.7144 40.8471 9.70119 40.8172 9.68908C40.7112 9.63626 40.6 9.59472 40.4853 9.56513C40.4223 9.54832 40.3004 9.56513 40.2941 9.76471C40.3151 10.3172 40.542 10.7626 41.0504 10.9895C41.708 11.2731 42.6765 11.2416 43.2269 10.666V10.6681ZM40.7157 10.0569L40.7059 10.0504L40.7122 10.0483L40.7157 10.0569ZM41.3634 10.6702C41.0708 10.5658 40.8358 10.3431 40.7157 10.0569C40.8872 10.1683 41.0944 10.2111 41.2962 10.1765C41.5339 10.0663 41.6999 9.84339 41.7374 9.58403C41.8088 9.10084 41.6786 8.67227 41.4223 8.4937C41.2857 8.41069 41.1242 8.37869 40.9664 8.40336C40.9924 8.3204 41.0059 8.23401 41.0063 8.14706C41.0074 8.09599 41.001 8.04503 40.9874 7.9958C40.928 7.82406 40.7922 7.68971 40.6197 7.63235C41.3067 7.2122 42.2835 7.35503 43.0881 7.47268L43.0882 7.47269L43.1744 7.48529V7.59034C42.9717 7.65455 42.8238 7.82937 42.7941 8.03992C42.7909 8.07415 42.7909 8.10862 42.7941 8.14286C42.7926 8.23156 42.8121 8.31936 42.8508 8.39916C42.6738 8.33533 42.476 8.37408 42.3361 8.5C42.0815 8.81742 41.9933 9.2372 42.0987 9.63025C42.1461 9.82455 42.2674 9.99266 42.437 10.0987C42.6634 10.1882 42.9198 10.1566 43.1176 10.0147C43.0777 10.3403 42.7143 10.5567 42.5924 10.6176C42.202 10.7803 41.7664 10.799 41.3634 10.6702ZM51.687 7.84454H51.7248C51.9071 7.84786 52.0543 7.99422 52.0588 8.17647C52.0511 8.31763 51.9938 8.45153 51.897 8.55462L51.8797 8.57853C51.7893 8.70269 51.6788 8.85448 51.7794 8.97479C51.8865 9.10294 52.0777 9.0021 52.1996 8.90126C52.2792 8.82226 52.3811 8.76948 52.4916 8.75C52.5677 8.73509 52.6463 8.75867 52.7017 8.81302C52.8309 9.04221 52.8576 9.31525 52.7752 9.56513C52.7605 9.60924 52.6975 9.72269 52.6113 9.7437C52.4825 9.75972 52.3529 9.72084 52.2542 9.63655C52.0966 9.54412 51.8151 9.43908 51.7626 9.66597C51.6907 10.024 51.791 10.3951 52.0336 10.6681C52.584 11.2416 53.5525 11.2752 54.2122 10.9811C54.7206 10.7542 54.9475 10.3088 54.9685 9.7563C54.9685 9.56513 54.8403 9.54622 54.7773 9.55672C54.6627 9.58643 54.5514 9.62797 54.4454 9.68067C54.4171 9.69248 54.3901 9.70515 54.3641 9.71737C54.2372 9.77687 54.1329 9.82583 54.0126 9.71429C53.8782 9.44898 53.8837 9.13439 54.0273 8.87395C54.0971 8.78983 54.2115 8.75728 54.3151 8.79202C54.3969 8.82471 54.4733 8.86931 54.542 8.92437C54.6723 9.02731 54.8487 9.16387 54.9622 8.98319C55.0185 8.89349 54.9319 8.75665 54.8615 8.64544C54.8479 8.62383 54.8348 8.60318 54.8235 8.58403C54.7589 8.4891 54.7126 8.38294 54.687 8.27101C54.6847 8.11472 54.7804 7.97368 54.9265 7.91807C55.0491 7.87683 55.1759 7.84935 55.3046 7.83613C55.1155 7.34244 54.6281 7.03151 53.834 6.95168C53.076 6.89379 52.314 6.98369 51.5903 7.21639C51.6505 7.4041 51.6844 7.59922 51.6912 7.79622L51.687 7.84454ZM52.1702 7.47059L52.0861 7.48319L52.1008 7.58613C52.3043 7.64967 52.4531 7.82464 52.4832 8.03572C52.4864 8.06995 52.4864 8.10442 52.4832 8.13866C52.4847 8.22737 52.4653 8.31519 52.4265 8.39496C52.6035 8.33113 52.8013 8.36988 52.9412 8.4958C53.1962 8.813 53.2852 9.23265 53.1807 9.62605C53.1323 9.8233 53.0076 9.9933 52.834 10.0987C52.6076 10.1882 52.3512 10.1566 52.1534 10.0147C52.1954 10.3403 52.5588 10.5567 52.6786 10.6176C53.069 10.7803 53.5046 10.799 53.9076 10.6702C54.2014 10.5606 54.4351 10.3316 54.5504 10.0399C54.377 10.1559 54.1657 10.201 53.9601 10.166C53.7223 10.0557 53.5564 9.83288 53.5189 9.57353C53.4496 9.09034 53.5798 8.66177 53.834 8.48319C53.9732 8.39696 54.1389 8.36412 54.3004 8.39076C54.2742 8.30783 54.2608 8.22142 54.2605 8.13445C54.2586 8.08348 54.2643 8.03251 54.2773 7.98319C54.338 7.81685 54.4709 7.68704 54.6386 7.63025C53.9545 7.20894 52.9868 7.35085 52.1875 7.46804L52.1702 7.47059Z" fill="#231F20"/>
<path fill-rule="evenodd" clip-rule="evenodd" d="M55.7164 18.5755C55.7237 18.3683 55.7806 18.1659 55.8824 17.9852C56.0189 17.7142 56.479 16.9075 56.6681 16.6218V16.6091C56.8781 16.2583 57.0861 16.0272 57.479 16.0062H63.1513V0.497803H32.1429V16.0104H37.792C38.1828 16.0293 38.3929 16.2625 38.6029 16.6133V16.626C38.7689 16.9117 39.229 17.7205 39.3634 17.9894C39.4651 18.1701 39.522 18.3725 39.5294 18.5797C39.5185 18.8425 39.4365 19.0974 39.292 19.3171L38.7941 20.1785L37.8487 21.8129C37.806 21.8851 37.7734 21.9629 37.7521 22.044H41.4622C41.9034 22.044 42.2521 22.147 42.5126 22.6533L44.1008 25.4747C44.5189 26.0755 44.5966 26.7163 44.3382 27.1848C44.0798 27.6533 43.5378 27.9075 42.8529 27.8781C41.7647 27.836 41.2122 27.1701 41.2122 25.9096V25.8823L40.6576 25.0608H35.979C35.1408 25.0608 34.5987 24.8507 34.3193 24.4306C34.1933 24.2363 34.1282 24.0088 34.1323 23.7772C34.1659 23.3379 34.2858 22.9095 34.4853 22.5167C34.5425 22.4064 34.5478 22.2764 34.5 22.1617C34.4454 22.0482 34.2647 21.8823 33.6765 21.8823H32.1429V31.4957H63.1492V21.8781H61.584C60.9958 21.8781 60.8151 22.044 60.7605 22.1575C60.7133 22.2725 60.7195 22.4025 60.7773 22.5125C60.9768 22.9053 61.0967 23.3337 61.1302 23.773C61.1344 24.0046 61.0693 24.2321 60.9433 24.4264C60.6639 24.8465 60.1239 25.0566 59.2836 25.0566H54.605L54.0504 25.8781V25.9054C54.0504 27.1701 53.5 27.8318 52.4118 27.8739C51.7269 27.9033 51.1933 27.6659 50.9265 27.1806C50.6597 26.6953 50.7437 26.0713 51.1639 25.4705L52.7521 22.6491C53.0063 22.1428 53.3571 22.0398 53.8025 22.0398H57.4937C57.4725 21.9586 57.4399 21.8808 57.3971 21.8087L56.4517 20.1743L55.9538 19.3129C55.8092 19.0932 55.7272 18.8383 55.7164 18.5755ZM50.6513 18.3108C50.7168 18.2246 50.7385 18.1128 50.7101 18.0083C50.6769 17.9344 50.6041 17.8862 50.5231 17.8844H44.7248C44.6454 17.8925 44.5749 17.9387 44.5357 18.0083C44.5089 18.1126 44.5297 18.2234 44.5924 18.3108L47.2563 23.126C47.2667 23.1437 47.2773 23.1629 47.2884 23.183C47.3629 23.3176 47.4579 23.4894 47.626 23.4894C47.7847 23.4894 47.8754 23.3351 47.9516 23.2054L47.9517 23.2054C47.9683 23.1771 47.9842 23.15 48 23.126L50.6513 18.3108ZM55.4622 15.2709V15.2457L55.4517 15.2205C55.2854 14.8759 54.9393 14.6541 54.5567 14.647H40.7248C40.3485 14.6579 40.0076 14.8717 39.834 15.2058L39.8172 15.2373L39.8067 15.2709C39.6888 15.6538 39.7531 16.0696 39.9811 16.3991L46.4769 28.1407L46.4779 28.1423C46.6608 28.4556 46.9675 28.981 47.6176 28.981H47.6407C48.3005 28.9663 48.6052 28.4443 48.7882 28.131L48.7899 28.1281L55.2878 16.3865C55.511 16.0599 55.5751 15.65 55.4622 15.2709ZM55.8025 6.84234C56.0778 7.22702 56.2248 7.68866 56.2227 8.16167L54.9118 13.5713H40.3697L39.0546 8.15536C39.0527 7.68238 39.1997 7.22078 39.4748 6.83604C40.5966 5.38646 42.6324 5.88856 43.8424 6.22679C44.4071 5.86472 45.0888 5.73243 45.7479 5.85705L46.1345 5.92217C45.7863 5.11138 46.1454 4.17066 46.9454 3.79822V3.42427H46.1975V2.05453H46.9538V1.32974H48.3403V2.05453H49.0819V3.42427H48.3403V3.80032C49.1375 4.17426 49.4944 5.11307 49.1471 5.92217L49.5294 5.86335C50.1885 5.73873 50.8702 5.87102 51.4349 6.2331C52.6513 5.89276 54.6807 5.38856 55.8025 6.84234ZM40.6176 7.62806C40.7874 7.6842 40.9221 7.81503 40.9832 7.9831C40.9968 8.03232 41.0032 8.08328 41.0021 8.13436C41.0043 8.22531 40.9923 8.31605 40.9664 8.40326C41.1279 8.37663 41.2936 8.40947 41.4328 8.4957C41.687 8.67427 41.8172 9.10284 41.7479 9.58604C41.7104 9.84539 41.5445 10.0683 41.3067 10.1785C41.1011 10.2138 40.8897 10.1686 40.7164 10.0524C40.8315 10.3442 41.0652 10.5734 41.3592 10.6827C41.7622 10.8115 42.1978 10.7928 42.5882 10.6302C42.7101 10.5692 43.0735 10.3528 43.1134 10.0272C42.9156 10.1691 42.6592 10.2007 42.4328 10.1112C42.2592 10.0058 42.1345 9.83581 42.0861 9.63856C41.9807 9.2455 42.0689 8.82573 42.3235 8.50831C42.4634 8.38239 42.6612 8.34364 42.8382 8.40747C42.7995 8.32767 42.78 8.23987 42.7815 8.15116C42.7783 8.11693 42.7783 8.08246 42.7815 8.04822C42.8112 7.83768 42.9591 7.66285 43.1618 7.59864V7.4936L43.0756 7.481C42.2794 7.35285 41.3025 7.20369 40.6155 7.62806H40.6176ZM52.1808 7.46838C52.9854 7.35073 53.9622 7.2079 54.6492 7.62806H54.645C54.4712 7.68143 54.3322 7.81267 54.2689 7.9831C54.2559 8.03242 54.2502 8.08339 54.2521 8.13436C54.2524 8.22132 54.2658 8.30774 54.292 8.39066C54.1305 8.36402 53.9648 8.39687 53.8256 8.4831C53.5714 8.66167 53.4391 9.09024 53.5105 9.57343C53.548 9.83278 53.7139 10.0556 53.9517 10.1659C54.1573 10.2009 54.3686 10.1558 54.542 10.0398C54.4267 10.3315 54.193 10.5605 53.8992 10.6701C53.4962 10.7989 53.0606 10.7802 52.6702 10.6176C52.5483 10.5566 52.1849 10.3402 52.145 10.0146C52.3428 10.1565 52.5992 10.1881 52.8256 10.0986C52.9992 9.9932 53.1239 9.82321 53.1723 9.62595C53.2774 9.23289 53.1892 8.81327 52.9349 8.4957C52.795 8.36979 52.5972 8.33103 52.4202 8.39486C52.459 8.31509 52.4784 8.22727 52.4769 8.13856C52.4801 8.10432 52.4801 8.06985 52.4769 8.03562C52.4472 7.82508 52.2993 7.65025 52.0966 7.58604V7.481L52.1807 7.46839L52.1808 7.46838ZM46.2668 10.1154C45.8718 9.90537 45.8466 9.32343 45.9244 8.93058C45.9523 8.74586 46.05 8.57892 46.1975 8.46419C46.3395 8.3832 46.5075 8.3606 46.666 8.40116C46.6275 8.31062 46.6062 8.21376 46.6029 8.11545C46.6 8.00722 46.634 7.90122 46.6996 7.81503C46.7594 7.73691 46.8382 7.67543 46.9286 7.63646C46.8811 7.54264 46.8023 7.46834 46.7059 7.42637C46.3887 7.30902 46.0525 7.25132 45.7143 7.25621C45.3763 7.2544 45.0407 7.312 44.7227 7.42637C44.6263 7.46834 44.5475 7.54264 44.5 7.63646C44.5904 7.67527 44.6693 7.73678 44.729 7.81503C44.7944 7.9013 44.8284 8.00724 44.8256 8.11545C44.8224 8.21376 44.801 8.31062 44.7626 8.40116C44.921 8.3606 45.089 8.3832 45.2311 8.46419C45.3785 8.57892 45.4763 8.74586 45.5042 8.93058C45.5735 9.32133 45.5567 9.89696 45.1618 10.1154C44.9272 10.2043 44.6637 10.1695 44.4601 10.023C44.5101 10.2128 44.6198 10.3815 44.7731 10.5041C45.3503 10.8374 46.0615 10.8374 46.6386 10.5041C46.7941 10.381 46.9055 10.2107 46.9559 10.0188C46.7554 10.1646 46.4958 10.2015 46.2626 10.1176L46.2668 10.1154ZM49.7647 8.93268C49.687 9.32343 49.7122 9.90537 50.1071 10.1154L50.1029 10.1176C50.3392 10.2053 50.6037 10.1682 50.8067 10.0188C50.7562 10.2106 50.6449 10.3809 50.4895 10.5041C49.9095 10.841 49.1934 10.841 48.6134 10.5041C48.4603 10.3814 48.3505 10.2128 48.3004 10.023C48.504 10.1695 48.7675 10.2043 49.0021 10.1154C49.3971 9.89906 49.4139 9.32343 49.3445 8.93268C49.3164 8.74804 49.2187 8.58116 49.0714 8.46629C48.9294 8.3853 48.7614 8.3627 48.6029 8.40326C48.6412 8.31268 48.6626 8.21584 48.666 8.11755C48.6689 8.00932 48.6348 7.90332 48.5693 7.81713C48.5096 7.73888 48.4308 7.67737 48.3403 7.63856C48.3878 7.54474 48.4666 7.47044 48.563 7.42847C48.8811 7.31418 49.2167 7.25659 49.5546 7.25831C49.8928 7.25357 50.229 7.31126 50.5462 7.42847C50.6426 7.47044 50.7214 7.54474 50.7689 7.63856C50.6784 7.6772 50.5995 7.73874 50.5399 7.81713C50.4744 7.90332 50.4403 8.00932 50.4433 8.11755C50.4467 8.21583 50.4681 8.31265 50.5063 8.40326C50.3479 8.3627 50.1799 8.3853 50.0378 8.46629C49.8902 8.58087 49.7924 8.74789 49.7647 8.93268Z" fill="#ED1B2E"/>
<path d="M0.241597 45.666C0.871118 45.9916 1.57073 46.1582 2.27941 46.1513C2.90966 46.1513 3.4958 46.0231 3.4958 45.4328C3.4937 44.0589 0 44.9223 0 42.2269C0 40.4454 1.7395 39.9601 3.22479 39.9601C3.86882 39.9528 4.51011 40.045 5.12605 40.2332L4.9979 41.7626C4.48332 41.5329 3.92482 41.4182 3.36134 41.4265C2.86555 41.4265 2.03571 41.4664 2.03571 42.1177C2.03571 43.3131 5.53571 42.5063 5.53571 45.1786C5.53571 47.0967 3.92857 47.6156 2.28361 47.6156C1.53782 47.6152 0.795836 47.5091 0.0798319 47.3005L0.247899 45.666" fill="#231F20"/>
<path d="M6.11554 41.9684H7.23529V40.7289L9.11134 40.147V41.9684H10.4517V43.3045H9.11134V45.336C9.11134 46.0083 9.2773 46.3444 9.87604 46.3444C10.0717 46.3369 10.2663 46.313 10.458 46.273L10.5231 47.5104C10.1277 47.5742 9.72821 47.61 9.32772 47.6176C7.62184 47.6176 7.20798 46.8655 7.20798 45.5566V43.3024H6.11554V41.9663" fill="#231F20"/>
<path fill-rule="evenodd" clip-rule="evenodd" d="M14.8974 47.1546C14.9043 47.2619 14.9113 47.3699 14.916 47.479V47.4811H16.6681C16.5902 47.0514 16.5536 46.6152 16.5588 46.1786V44.124C16.5588 42.437 15.3445 41.834 13.937 41.834C13.183 41.8181 12.4332 41.9516 11.7311 42.2269L11.7731 43.521C12.3114 43.2328 12.9148 43.0881 13.5252 43.1008C14.2101 43.1008 14.7689 43.3025 14.7857 44.0567C14.4898 44.0078 14.1906 43.9819 13.8908 43.979C12.8761 43.979 11.042 44.1891 11.042 45.8698C11.042 47.0672 12.0147 47.6071 13.1071 47.6071C13.8908 47.6071 14.4181 47.3004 14.855 46.6134H14.874C14.874 46.7931 14.8856 46.9729 14.8974 47.1546ZM14.7836 45.0336C14.7836 45.6807 14.3214 46.3361 13.6029 46.3361L13.6071 46.3424C13.1639 46.3424 12.8151 46.1198 12.8193 45.7311C12.8193 45.2017 13.3256 45.0021 13.9769 45.0021C14.2569 45.0021 14.5349 45.0187 14.7797 45.0334L14.7836 45.0336Z" fill="#231F20"/>
<path d="M17.292 41.9684H18.4139V40.7289L20.3046 40.147V41.9684H21.6366V43.3045H20.2962V45.336C20.2962 46.0083 20.4517 46.3444 21.0567 46.3444C21.2524 46.3369 21.447 46.313 21.6387 46.273L21.7017 47.5104C21.3083 47.5741 20.911 47.6099 20.5126 47.6176C18.8025 47.6176 18.3929 46.8655 18.3929 45.5566V43.3024H17.292V41.9663" fill="#231F20"/>
<path fill-rule="evenodd" clip-rule="evenodd" d="M24.1599 45.2879C24.2616 46.0489 24.8475 46.3362 25.7815 46.3362C26.3677 46.3362 26.9449 46.1919 27.4622 45.9161V47.269C26.8145 47.5095 26.1278 47.6278 25.437 47.6177C23.6176 47.6177 22.2248 46.5463 22.2248 44.7228C22.2248 42.8993 23.4664 41.8425 25.1849 41.8425C27.229 41.8425 27.9727 43.2942 27.9727 44.9371V45.2879H24.1599ZM25.2101 43.0505C25.9685 43.0505 26.2605 43.5757 26.2605 44.206H24.1597C24.1912 43.5673 24.521 43.0505 25.2101 43.0505Z" fill="#231F20"/>
<path d="M28.9601 41.9685H30.6996V42.9853H30.7206C31.105 42.1891 31.8655 41.8403 32.7332 41.8403C34.2416 41.8403 34.8445 42.9013 34.8445 44.0441V47.479H32.9349V44.8172C32.9349 43.7794 32.5756 43.4286 32.0546 43.4286C31.271 43.4286 30.8697 43.9727 30.8697 45.1597V47.479H28.9601V41.9685" fill="#231F20"/>
<path d="M35.9244 45.9644C36.4913 46.2039 37.0989 46.3322 37.7143 46.3425C38.1071 46.3425 38.4916 46.2795 38.4916 45.8972C38.4916 44.9686 35.7731 45.6241 35.7731 43.6283C35.7731 42.3678 37.0336 41.8384 38.126 41.8384C38.7875 41.8204 39.4464 41.9287 40.0672 42.1577L39.916 43.4875C39.465 43.2406 38.9595 43.1106 38.4454 43.1094C38.0252 43.1094 37.5672 43.185 37.5672 43.4917C37.5672 44.3468 40.4076 43.6745 40.4076 45.7711C40.4076 47.2417 39.0819 47.6136 37.8298 47.6136C37.151 47.6341 36.4734 47.544 35.8235 47.3467L35.9328 45.9623" fill="#231F20"/>
<path d="M44.0861 41.9685H46.1302L47.2773 45.8971H47.2962L48.4517 41.9685H50.3487L48.3025 47.4874H46.1302L44.0861 41.9685Z" fill="#231F20"/>
<path fill-rule="evenodd" clip-rule="evenodd" d="M52.7104 45.2879C52.8183 46.0489 53.4042 46.3362 54.3319 46.3362C54.9182 46.3362 55.4954 46.1919 56.0126 45.9161V47.269C55.3663 47.5093 54.6811 47.6276 53.9916 47.6177C52.1639 47.6177 50.7815 46.5463 50.7815 44.7228C50.7815 42.8993 52.0147 41.8425 53.7332 41.8425C55.7794 41.8425 56.5231 43.2942 56.5231 44.9371V45.2879H52.7104ZM53.7605 43.0505C54.5126 43.0505 54.8109 43.5757 54.8109 44.206H52.7101C52.7437 43.5673 53.0714 43.0505 53.7605 43.0505Z" fill="#231F20"/>
<path fill-rule="evenodd" clip-rule="evenodd" d="M60.0504 49.8507C62.2773 49.8507 63.374 49.1196 63.374 46.8486H63.3655V41.9768H61.6408V42.9726H61.6177C61.2446 42.2843 60.5265 41.8536 59.7437 41.8486C58.0315 41.8486 57.2542 43.0944 57.2542 44.7226C57.2542 46.3507 58.1933 47.4957 59.7122 47.4957C60.4517 47.5191 61.152 47.1634 61.5693 46.5524H61.5819V46.8486C61.5819 47.9327 61 48.4516 59.9013 48.4516C59.2512 48.4652 58.6089 48.3087 58.0378 47.9978L57.937 49.5041C58.618 49.7336 59.3318 49.8507 60.0504 49.8507ZM61.521 44.6196C61.521 45.4642 60.9832 46.0335 60.3046 46.0335L60.313 46.023C59.7353 46.023 59.2311 45.5377 59.2227 44.6932C59.2227 43.9453 59.5945 43.315 60.3046 43.315C61.1639 43.315 61.521 44.002 61.521 44.6196Z" fill="#231F20"/>
<path d="M64.1155 41.9685H66.1576L67.3067 45.8971H67.3298L68.4874 41.9685H70.3781L68.3361 47.4874H66.1576L64.1155 41.9685Z" fill="#231F20"/>
<path fill-rule="evenodd" clip-rule="evenodd" d="M72.7377 45.2879C72.8477 46.0489 73.4315 46.3362 74.3676 46.3362C74.954 46.3373 75.5314 46.1929 76.0483 45.9161V47.269C75.4022 47.5101 74.7168 47.6283 74.0273 47.6177C72.208 47.6177 70.813 46.5463 70.813 44.7228C70.813 42.8993 72.0588 41.8425 73.7752 41.8425C75.8172 41.8425 76.5609 43.2942 76.5609 44.9371V45.2879H72.7377ZM73.7731 43.0505C74.5399 43.0505 74.8382 43.5757 74.8382 44.206H72.7101C72.7605 43.5673 73.0798 43.0505 73.7731 43.0505Z" fill="#231F20"/>
<path d="M77.4517 45.9643C78.0181 46.2053 78.6261 46.3337 79.2416 46.3425C79.6323 46.3425 80.0126 46.2794 80.0126 45.8971C80.0126 44.9685 77.3004 45.624 77.3004 43.6282C77.3004 42.3677 78.5462 41.8382 79.6534 41.8382C80.3141 41.8208 80.9722 41.9291 81.5924 42.1576L81.437 43.4811C80.9859 43.2354 80.48 43.1075 79.9664 43.1093C79.5462 43.1093 79.0819 43.1849 79.0819 43.4916C79.0819 44.3467 81.9244 43.6744 81.9244 45.771C81.9244 47.2416 80.6029 47.6135 79.3508 47.6135C78.6734 47.6341 77.9971 47.544 77.3487 47.3467L77.458 45.9622" fill="#231F20"/>
<path fill-rule="evenodd" clip-rule="evenodd" d="M84.5171 45.2879C84.625 46.0489 85.2067 46.3362 86.1324 46.3362C86.7186 46.3362 87.2958 46.1919 87.813 45.9161V47.269C87.167 47.5103 86.4815 47.6286 85.792 47.6177C83.9769 47.6177 82.5819 46.5463 82.5819 44.7228C82.5819 42.8993 83.8235 41.8425 85.5357 41.8425C87.5861 41.8425 88.3277 43.2942 88.3277 44.9371V45.2879H84.5171ZM85.5672 43.0505C86.3193 43.0505 86.6177 43.5757 86.6177 44.206H84.5021C84.5441 43.5673 84.8739 43.0505 85.5672 43.0505Z" fill="#231F20"/>
<path d="M89.3256 41.9685H91.0672V42.9853H91.0882C91.4685 42.1891 92.2311 41.8403 93.1029 41.8403C94.6071 41.8403 95.2038 42.9013 95.2038 44.0441V47.479H93.2983V44.8172C93.2983 43.7794 92.9412 43.4286 92.4223 43.4286C91.6344 43.4286 91.2395 43.9727 91.2395 45.1597V47.479H89.3235V41.9685" fill="#231F20"/>
</svg>
